<?xml version="1.0" encoding="utf-8"?>
<!-- Generator: Adobe Illustrator 25.0.0, SVG Export Plug-In . SVG Version: 6.00 Build 0)  -->
<svg version="1.1" id="Warstwa_1" xmlns="http://www.w3.org/2000/svg" xmlns:xlink="http://www.w3.org/1999/xlink" x="0px" y="0px"
	 viewBox="0 0 245.3 109.1" style="enable-background:new 0 0 245.3 109.1;" xml:space="preserve">
<style type="text/css">
	.st0{fill:#F2DFD7;}
</style>
<g id="Group_674" transform="translate(-476.68 -120.638)">
	<path id="Path_2474" class="st0" d="M484.7,229.8c3,0,4.5-1.5,4.5-3.3c0-3.9-6.1-2.5-6.1-4.5c0-0.7,0.6-1.2,2-1.2
		c1,0,2,0.3,2.9,0.8l0.7-1.8c-1.1-0.6-2.4-1-3.6-0.9c-3,0-4.4,1.5-4.4,3.3c0,3.9,6.1,2.6,6.1,4.5c0,0.6-0.6,1.1-2,1.1
		c-1.2,0-2.4-0.4-3.5-1.1l-0.8,1.8C481.7,229.4,483.2,229.8,484.7,229.8z M490.8,229.6h7.7v-2h-5.3v-8.5h-2.4V229.6z M499.9,229.6
		h2.4v-10.5h-2.4V229.6z M516.6,229.6l0-10.5h-2l-3.9,6.5l-3.9-6.5h-2v10.5h2.3v-6.2l3.1,5.1h1.1l3.1-5.2l0,6.3H516.6z M531,229.6
		l0-10.5h-2l-3.9,6.5l-3.9-6.5h-2v10.5h2.3v-6.2l3.1,5.1h1.1l3.1-5.2l0,6.3H531z M533.4,229.6h2.4v-10.5h-2.4V229.6z M545.6,219.1
		v6.4l-5.2-6.4h-2v10.5h2.4v-6.4l5.2,6.4h2v-10.5H545.6z M557.6,227.3c-0.6,0.3-1.2,0.5-1.9,0.4c-1.8,0.1-3.3-1.3-3.4-3.1
		c0-0.1,0-0.2,0-0.3c-0.1-1.8,1.3-3.3,3.1-3.4c0.1,0,0.2,0,0.3,0c1,0,2,0.4,2.7,1.2l1.6-1.4c-1.1-1.2-2.7-1.9-4.4-1.8
		c-3.3,0-5.8,2.3-5.8,5.4c0,3,2.4,5.4,5.4,5.4c0.1,0,0.2,0,0.4,0c1.5,0,3-0.5,4.2-1.3v-4.3h-2.2V227.3z M566.3,229.6h4.8
		c3.4,0,5.8-2.1,5.8-5.3c0-3.2-2.4-5.3-5.8-5.3h-4.8V229.6z M568.7,227.6v-6.5h2.2c1.7-0.2,3.3,1.1,3.4,2.8c0,0.2,0,0.3,0,0.5
		c0.1,1.7-1.3,3.2-3,3.3c-0.2,0-0.3,0-0.5,0H568.7z M588,229.6l-2.4-3.4c1.4-0.5,2.2-1.9,2.2-3.3c0-2.4-1.8-3.8-4.6-3.8h-4.5v10.5
		h2.4v-2.9h2.2l2,2.9H588z M585.3,222.9c0,1.1-0.8,1.8-2.2,1.8h-2v-3.7h2C584.6,221.1,585.3,221.8,585.3,222.9z M589.7,229.6h2.4
		v-10.5h-2.4V229.6z M601.9,219.1v6.4l-5.2-6.4h-2v10.5h2.4v-6.4l5.2,6.4h2v-10.5H601.9z M613.9,229.6h2.8l-4.6-5.8l4.3-4.7h-2.7
		l-4.7,4.9v-4.9h-2.4v10.5h2.4v-2.7l1.4-1.5L613.9,229.6z"/>
</g>
<g>
	<g>
		<g>
			<g>
				<g>
					<path class="st0" d="M4.3,42.9c-3-3.6-4.5-8.2-4.5-13.8s1.5-10.2,4.6-13.9s7.4-5.4,13.1-5.4c3.7,0,6.6,0.7,9,2.1S30,15,30,17.4
						c0,2.2-0.9,4-2.8,5.2c-1.8,1.3-4.2,1.9-7,1.9c1.6-1.7,2.4-4,2.4-7c0-1.7-0.5-3.1-1.6-4.2c-1-1.1-2.4-1.7-4-1.7
						c-3,0-5.2,1.7-6.6,5.2S8.2,24.3,8.2,29c0,3,0.4,5.8,1.3,8.3c0.9,2.5,2.1,4.5,3.8,5.9c1.6,1.5,3.6,2.2,5.8,2.2
						c2.5,0,4.6-0.5,6.3-1.6c1.6-1,3.2-2.5,4.6-4.4l0.9,0.7c-1.5,2.4-3.3,4.3-5.6,5.8s-4.9,2.2-8,2.2C11.6,48.3,7.3,46.5,4.3,42.9z"
						/>
					<path class="st0" d="M61.7,45.4c1,0,2-0.4,3-1.2l0.6,0.8c-2,2.1-4.3,3.3-7,3.3c-1.9,0-3.3-0.5-4.1-1.5c-0.8-1-1.3-2.6-1.3-4.8
						V29.8c0-3.1-1-4.6-3-4.6c-1.9,0-3.5,1.3-4.6,3.9s-1.8,6-1.8,10.2c0,1.6,0.1,3,0.4,3.9c0.3,1,0.6,1.9,1.3,2.7l0.6,0.8l-0.6,0.8
						H33.7l-0.5-1.3l1.1-0.3c0.8-0.2,1.4-0.6,1.6-1c0.3-0.4,0.4-1.3,0.4-2.7V13.9c0-0.4-0.1-0.8-0.3-1c-0.2-0.3-0.4-0.4-0.8-0.4
						h-2.5l-0.3-0.8c1-0.9,2.3-1.7,3.9-2.3c1.6-0.6,3.2-0.8,4.8-0.8C42,8.6,42.6,8.7,43,9c0.4,0.3,0.6,0.7,0.6,1.3v19.7
						c0.8-2.5,2.1-4.6,3.9-6.3c1.9-1.6,3.9-2.5,6-2.5c2.3,0,3.9,0.8,5,2.2c1,1.5,1.6,3.9,1.6,7.1V43C60.2,44.6,60.7,45.4,61.7,45.4z
						"/>
					<path class="st0" d="M71.3,24.8c2.4-2.5,5.7-3.7,9.9-3.7c4.1,0,7.5,1.3,9.9,3.7s3.7,5.8,3.7,9.9s-1.2,7.5-3.7,9.9
						s-5.8,3.7-9.9,3.7c-4.2,0-7.4-1.2-9.9-3.7c-2.4-2.5-3.6-5.8-3.6-9.9C67.6,30.6,68.8,27.2,71.3,24.8z M85.1,26.2
						c-1-2.3-2.3-3.4-3.8-3.4c-1.7,0-3.1,1.1-4.2,3.3c-1.1,2.2-1.6,5.1-1.6,8.7s0.5,6.4,1.5,8.6c1,2.1,2.3,3.2,3.9,3.2
						c1.6,0,3-1.1,4-3.2c1.1-2.1,1.6-4.9,1.6-8.4C86.6,31.4,86.1,28.5,85.1,26.2z"/>
					<path class="st0" d="M120.2,32.3c-1.1,1-2.3,1.5-3.9,1.5c-1.2,0-2.3-0.3-3.3-0.9c1.1-1.1,1.8-2.5,1.8-4.5
						c0-1.5-0.3-2.8-0.9-3.8c-0.6-1-1.6-1.5-2.8-1.5c-1.4,0-2.5,1.1-3.4,3.2s-1.3,4.9-1.3,8.4c0,3.3,0.6,5.9,1.9,7.9
						c1.3,2,3,3,5.3,3c1.6,0,3-0.3,4.1-0.9s2.2-1.5,3.2-2.5l0.9,0.6c-1.1,1.6-2.6,2.9-4.4,3.9c-1.8,1-3.9,1.5-6.3,1.5
						c-3.7,0-6.8-1.3-9.2-3.7c-2.4-2.5-3.6-5.7-3.6-9.6c0-4.2,1.3-7.5,3.7-10c2.5-2.5,5.8-3.7,9.9-3.7c2.9,0,5.3,0.6,7.1,2
						c1.8,1.3,2.7,3,2.7,5.1C121.8,29.9,121.3,31.3,120.2,32.3z"/>
					<path class="st0" d="M128.7,24.8c2.4-2.5,5.7-3.7,9.9-3.7c4.1,0,7.5,1.3,9.9,3.7c2.5,2.5,3.7,5.8,3.7,9.9s-1.2,7.5-3.7,9.9
						c-2.5,2.5-5.8,3.7-9.9,3.7c-4.2,0-7.4-1.2-9.9-3.7c-2.4-2.5-3.6-5.8-3.6-9.9C125.1,30.6,126.3,27.2,128.7,24.8z M142.5,26.2
						c-1-2.3-2.3-3.4-3.8-3.4c-1.7,0-3.1,1.1-4.2,3.3s-1.6,5.1-1.6,8.7s0.5,6.4,1.5,8.6c1,2.1,2.3,3.2,3.9,3.2s3-1.1,4-3.2
						c1.1-2.1,1.6-4.9,1.6-8.4C144,31.4,143.5,28.5,142.5,26.2z"/>
					<path class="st0" d="M166.7,45.4c1,0,2-0.4,3-1.2l0.6,0.8c-1.8,2.1-4.2,3.3-7,3.3c-1.8,0-3.2-0.4-4-1.3
						c-0.8-0.9-1.3-2.3-1.3-4.2V13.6c0-0.8-0.3-1.1-1-1.1h-2.5l-0.3-0.8c1-0.9,2.3-1.7,3.9-2.3c1.6-0.6,3.2-0.8,4.8-0.8
						c0.7,0,1.3,0.1,1.6,0.4c0.4,0.3,0.6,0.7,0.6,1.3V43C165.2,44.6,165.7,45.4,166.7,45.4z"/>
					<path class="st0" d="M177.2,30.9c-1.1,0-2-0.3-2.7-1c-0.6-0.7-0.9-1.6-0.9-2.8c0-1.8,0.9-3.2,2.7-4.4c1.8-1.1,4.1-1.6,7-1.6
						c3.4,0,6.1,0.8,8,2.2c2,1.5,2.9,3.5,2.9,6.1v13.8c0,1.5,0.5,2.2,1.6,2.2c1,0,2-0.4,3-1.2l0.6,0.8c-2,2.1-4.3,3.3-7,3.3
						c-1.6,0-2.8-0.4-3.6-1.2c-0.8-0.8-1.3-2-1.5-3.7h-0.3c-0.8,1.5-2,2.7-3.4,3.6c-1.5,0.9-3,1.3-4.8,1.3c-2,0-3.7-0.6-4.9-1.9
						c-1.2-1.3-1.8-2.9-1.8-4.9c0-2.3,1.1-4.1,3.3-5.4c2.1-1.3,5.1-2,8.8-2c0.7,0,1.6,0.1,3,0.2v-4c0-2.6-0.3-4.5-0.9-5.6
						c-0.6-1.1-1.6-1.7-3.1-1.7c-1,0-1.8,0.3-2.4,0.9s-0.9,1.5-0.9,2.5c0,1.6,0.5,2.8,1.5,3.6C180.1,30.6,178.7,30.9,177.2,30.9z
						 M187.1,35.8c-2.7,0-4.7,0.4-5.9,1.3c-1.3,0.9-2,2.1-2,3.7c0,1.1,0.3,1.9,0.9,2.5c0.6,0.6,1.4,0.9,2.4,0.9
						C185.5,44.3,187.1,41.5,187.1,35.8z"/>
					<path class="st0" d="M205.2,46.8c-0.9-1-1.5-2.6-1.5-4.8V25.1h-3.9c0-0.9,0.1-1.5,0.2-1.8c0.1-0.3,0.4-0.5,0.9-0.6
						c1.8-0.5,3.2-1.2,4.2-2.2c1-1,1.8-2.5,2.5-4.4c0.2-0.6,0.4-0.9,0.8-1.1c0.4-0.1,1.3-0.2,2.7-0.2V22h6.4c0,0.7-0.1,1.3-0.3,1.9
						c-0.2,0.6-0.5,0.9-0.9,1.3H211v17.9c0,1.6,0.6,2.4,2,2.4c0.6,0,1.3-0.2,2-0.6c0.7-0.4,1.4-0.9,2-1.5l0.6,0.8
						c-2.3,2.8-4.8,4.2-7.6,4.2C207.7,48.3,206.2,47.8,205.2,46.8z"/>
					<path class="st0" d="M239.2,44.8c1.1-0.6,2.3-1.5,3.4-2.8l0.9,0.7c-1.2,1.8-2.8,3.1-4.7,4.1s-3.9,1.5-6.2,1.5
						c-2.5,0-4.6-0.6-6.6-1.8c-2-1.1-3.5-2.8-4.6-4.8c-1.1-2-1.6-4.4-1.6-7c0-4.2,1.3-7.5,3.8-9.9s5.9-3.7,10-3.7
						c3,0,5.4,0.7,7.3,2.1c1.9,1.4,2.8,3.2,2.8,5.4c0,2.5-1.1,4.6-3.2,6.1s-5.1,2.3-8.8,2.3c-1.5,0-2.8-0.1-4-0.3
						c0.3,2.8,1.1,4.9,2.4,6.5c1.3,1.6,3,2.4,4.9,2.4C236.7,45.7,238.1,45.3,239.2,44.8z M229.1,26c-0.9,2-1.4,4.7-1.4,8.3v1.3
						c0.6,0,1.3-0.1,2.1-0.2c2.2-0.3,3.9-1,5.1-2.2s1.8-2.8,1.8-4.7c0-1.6-0.4-2.9-1.1-3.9c-0.7-1-1.6-1.6-2.7-1.6
						C231.3,23,230,24.1,229.1,26z"/>
				</g>
				<g>
					<g>
						<path class="st0" d="M3.8,61.8h10.7c2.8,0,5.3,0.6,7.5,1.8c2.2,1.1,3.9,2.8,5.1,4.8c1.2,2,1.8,4.4,1.8,7c0,2.6-0.6,4.9-1.8,7
							c-1.2,2-2.9,3.7-5.1,4.8S17.4,89,14.5,89H3.8C3.8,89,3.8,61.8,3.8,61.8z M14.3,87.2c2.5,0,4.7-0.5,6.6-1.5
							c1.9-1,3.3-2.4,4.4-4.2c1-1.8,1.5-3.8,1.5-6.1c0-2.3-0.5-4.4-1.5-6.1s-2.5-3.2-4.4-4.2c-1.9-1-4.1-1.5-6.6-1.5H5.7v23.5h8.6
							V87.2z"/>
						<path class="st0" d="M35.8,61.8h2V89h-2V61.8z"/>
						<path class="st0" d="M65.9,87.2V89H47.2V61.8h18.1v1.8H49.2v10.7h14.4v1.8H49.2v11.1C49.2,87.2,65.9,87.2,65.9,87.2z"/>
						<path class="st0" d="M82.2,63.6h-9.7v-1.8h21.5v1.8h-9.7V89h-2L82.2,63.6L82.2,63.6z"/>
					</g>
				</g>
			</g>
		</g>
	</g>
</g>
</svg>
