<svg xmlns="http://www.w3.org/2000/svg" width="68" height="68" viewBox="0 0 68 68">
  <g id="Group_501" data-name="Group 501" transform="translate(-1001 -6868.5)">
    <circle id="Ellipse_81" data-name="Ellipse 81" cx="34" cy="34" r="34" transform="translate(1001 6868.5)" fill="#fff"/>
    <g id="icon-person" transform="translate(1009.305 6869.319)">
      <ellipse id="Ellipse_18" data-name="Ellipse 18" cx="4.621" cy="4.621" rx="4.621" ry="4.621" transform="translate(5.268 0)" fill="#573d1c"/>
      <path id="Path_103" data-name="Path 103" d="M29.888,11A4.86,4.86,0,0,0,24.7,5.838H15.257A4.877,4.877,0,0,0,10.04,11l0,14.647a1.977,1.977,0,0,0,1.833,1.69,1.879,1.879,0,0,0,1.758-1.664L15.273,49a1.755,1.755,0,0,0,1.991,1.629A1.753,1.753,0,0,0,19.251,49h1.456a1.757,1.757,0,0,0,1.987,1.629A1.759,1.759,0,0,0,24.688,49l1.688-23.34a1.8,1.8,0,0,0,1.734,1.683,1.971,1.971,0,0,0,1.821-1.694Z" transform="translate(-10.04 4.366)" fill="#573d1c"/>
    </g>
    <g id="Group_500" data-name="Group 500" transform="translate(1032.746 6869.319)">
      <ellipse id="Ellipse_18-2" data-name="Ellipse 18" cx="4.621" cy="4.621" rx="4.621" ry="4.621" transform="translate(10.939)" fill="#573d1c"/>
      <path id="Union_1" data-name="Union 1" d="M17.481,43.82,15.873,27.37,14.265,43.82s.082,1.726-1.971,1.577a1.952,1.952,0,0,1-1.971-2.007S7.249,32.454,6.8,23.336A54.4,54.4,0,0,1,8.52,6.918L3.4,18.649s-.744,2.2-2.362,1.575-.866-2.6-.866-2.6S2.159,8.948,4.7,4.542,9.4.028,10.323,0h11.1c.922.028,3.089.136,5.626,4.542s4.521,13.084,4.521,13.084.752,1.975-.866,2.6-2.362-1.575-2.362-1.575L23.225,6.918a54.413,54.413,0,0,1,1.721,16.418C24.5,32.454,21.424,43.39,21.424,43.39A1.953,1.953,0,0,1,19.452,45.4c-.085.006-.166.009-.244.009A1.544,1.544,0,0,1,17.481,43.82Z" transform="translate(0 9.712)" fill="#573d1c"/>
    </g>
  </g>
</svg>
