<svg xmlns="http://www.w3.org/2000/svg" width="150" height="152.97" viewBox="0 0 150 152.97">
  <g id="Group_522" data-name="Group 522" transform="translate(-191.5 -14137.902)">
    <circle id="Ellipse_90" data-name="Ellipse 90" cx="75" cy="75" r="75" transform="translate(191.5 14140.872)" fill="#fff"/>
    <g id="icon-parcel" transform="translate(204.516 14137.902)">
      <g id="Group_64" data-name="Group 64" transform="translate(0 0)">
        <g id="Group_63" data-name="Group 63" transform="translate(0 0)">
          <path id="Path_136" data-name="Path 136" d="M138.9,29.18,78.858.192a1.938,1.938,0,0,0-1.684,0L17.127,29.18a1.937,1.937,0,0,0-1.095,1.745v70.4a1.937,1.937,0,0,0,1.095,1.745l60.046,28.988a1.937,1.937,0,0,0,1.685,0L138.9,103.068A1.937,1.937,0,0,0,140,101.324v-70.4A1.938,1.938,0,0,0,138.9,29.18ZM78.016,4.088l55.59,26.837L117.492,38.7a1.921,1.921,0,0,0-.328-.207L61.951,11.843Zm-20.44,9.946,55.51,26.8L101.716,46.32,46.23,19.533Zm56.808,30.473V64.795l-10.619,5.127V49.633Zm21.741,55.6L79.953,127.225v-66.1l13.4-6.468a1.937,1.937,0,0,0-1.685-3.489L78.016,57.761l-5.372-2.593a1.937,1.937,0,1,0-1.685,3.489l5.119,2.471v66.1L19.906,100.108v-66.1l42.774,20.65a1.937,1.937,0,0,0,1.684-3.489L22.425,30.925,41.67,21.634,99.863,49.727c.009.012.018.022.027.034V73.008a1.937,1.937,0,0,0,2.78,1.745l14.494-7a1.937,1.937,0,0,0,1.095-1.745V42.636l17.866-8.625v66.1Z" transform="translate(-16.032 0.001)"/>
        </g>
      </g>
      <g id="Group_66" data-name="Group 66" transform="translate(8.27 88.148)">
        <g id="Group_65" data-name="Group 65">
          <path id="Path_137" data-name="Path 137" d="M59.64,345.709l-8.812-4.254a1.937,1.937,0,0,0-1.685,3.489l8.812,4.254a1.937,1.937,0,0,0,1.685-3.489Z" transform="translate(-48.048 -341.261)"/>
        </g>
      </g>
      <g id="Group_68" data-name="Group 68" transform="translate(8.282 78.96)">
        <g id="Group_67" data-name="Group 67" transform="translate(0)">
          <path id="Path_138" data-name="Path 138" d="M67.785,314.047l-16.91-8.163a1.937,1.937,0,1,0-1.684,3.489l16.91,8.163a1.937,1.937,0,0,0,1.684-3.489Z" transform="translate(-48.096 -305.69)"/>
        </g>
      </g>
    </g>
  </g>
</svg>
