<svg xmlns="http://www.w3.org/2000/svg" width="68" height="68.5" viewBox="0 0 68 68.5">
  <g id="Group_671" data-name="Group 671" transform="translate(-557 -10083.5)">
    <circle id="Ellipse_38" data-name="Ellipse 38" cx="34" cy="34" r="34" transform="translate(557 10084)" fill="#f2dfd7"/>
    <g id="icon-weist" transform="translate(557 10083.5)">
      <path id="Path_1295" data-name="Path 1295" d="M373.131,42.262A1.131,1.131,0,1,0,372,41.131,1.131,1.131,0,0,0,373.131,42.262Zm0,0" transform="translate(-329.935 -35.477)"/>
      <path id="Path_1296" data-name="Path 1296" d="M307.131,200a1.131,1.131,0,1,0,1.131,1.131A1.131,1.131,0,0,0,307.131,200Zm0,0" transform="translate(-271.398 -177.384)"/>
      <path id="Path_1297" data-name="Path 1297" d="M375.16,79.951a1.131,1.131,0,0,0-1.11,1.151,24.99,24.99,0,0,0,3.087,11.57,1.131,1.131,0,0,0,1.981-1.091,22.719,22.719,0,0,1-2.807-10.519,1.13,1.13,0,0,0-1.151-1.11Zm0,0" transform="translate(-331.752 -70.91)"/>
      <path id="Path_1298" data-name="Path 1298" d="M5.654,20.354H19.113C16.258,25.559,13.852,30.3,14,36.213a40.066,40.066,0,0,0,7.561,21.244,1.13,1.13,0,0,0,.894.439H33.472A1.131,1.131,0,0,0,34.6,56.765V42.234a7.782,7.782,0,0,0,2.262,0V56.765A1.131,1.131,0,0,0,37.995,57.9H49.016a1.131,1.131,0,0,0,.894-.439c3.483-4.5,7.241-13.676,7.5-21.231C57.623,30,55.393,26,51.328,18.49A18.2,18.2,0,0,1,49.147,11.3l7.619,0A1.131,1.131,0,0,0,57.9,10.176V1.13A1.131,1.131,0,0,0,56.766,0H5.654A5.653,5.653,0,0,0,0,5.653V14.7a5.66,5.66,0,0,0,5.654,5.654ZM2.262,14.7V10.173a5.624,5.624,0,0,0,3.392,1.134H34.6v6.785H29.74V14.7a1.131,1.131,0,0,0-2.262,0v3.392H22.616V14.7a1.131,1.131,0,1,0-2.262,0v3.392H15.831V14.7a1.131,1.131,0,0,0-2.262,0v3.392H9.047V14.7a1.131,1.131,0,0,0-2.262,0v3.392H5.654A3.4,3.4,0,0,1,2.262,14.7ZM23.015,55.634a38.043,38.043,0,0,1-6.758-19.477,18.336,18.336,0,0,1,.372-4.137c4.094,1.553,8.878,4.45,14.244,8.628a7.942,7.942,0,0,0,1.467.9V55.634Zm9.248-16.771c-5.638-4.389-10.7-7.426-15.059-9.043a32.077,32.077,0,0,1,1.636-4.05A41.414,41.414,0,0,0,35.733,29.4a41.448,41.448,0,0,0,16.854-3.611,36.9,36.9,0,0,1,1.672,4.032c-4.36,1.616-9.417,4.653-15.056,9.042a5.646,5.646,0,0,1-6.94,0ZM55.15,36.148c-.232,6.766-3.594,15.2-6.7,19.486H39.126V41.551a7.928,7.928,0,0,0,1.467-.9c5.377-4.186,10.169-7.086,14.265-8.637a16.887,16.887,0,0,1,.292,4.137ZM51.585,23.761a39.075,39.075,0,0,1-15.852,3.377,39.062,39.062,0,0,1-15.879-3.39c.576-1.1,1.194-2.224,1.84-3.4H35.733a1.131,1.131,0,0,0,1.131-1.131V10.176a1.131,1.131,0,0,0-1.131-1.131h-11.1A20.528,20.528,0,0,0,23.225,2.26H48.241a20.382,20.382,0,0,0,1.106,17.322c.01.019,1.292,2.33,2.237,4.179ZM49.092,9.047a18.246,18.246,0,0,1,1.6-6.786h4.938v6.79ZM5.654,2.261H6.785V5.653a1.131,1.131,0,1,0,2.262,0V2.261H13.57V5.653a1.131,1.131,0,1,0,2.262,0V2.261H20.77a18.231,18.231,0,0,1,1.6,6.785H5.654a3.392,3.392,0,0,1,0-6.785Zm0,0" transform="translate(0 0.001)"/>
    </g>
  </g>
</svg>
