<svg xmlns="http://www.w3.org/2000/svg" width="46.057" height="33.008" viewBox="0 0 46.057 33.008">
  <g id="dostawa" transform="translate(0 -72.533)">
    <g id="Group_2" data-name="Group 2" transform="translate(6.141 96.329)">
      <g id="Group_1" data-name="Group 1" transform="translate(0 0)">
        <path id="Path_57" data-name="Path 57" d="M72.873,337.067a4.606,4.606,0,1,0,4.606,4.606A4.61,4.61,0,0,0,72.873,337.067Zm0,7.676a3.07,3.07,0,1,1,3.07-3.07A3.074,3.074,0,0,1,72.873,344.743Z" transform="translate(-68.267 -337.067)" fill="#000"/>
      </g>
    </g>
    <g id="Group_4" data-name="Group 4" transform="translate(32.24 96.329)">
      <g id="Group_3" data-name="Group 3" transform="translate(0 0)">
        <path id="Path_58" data-name="Path 58" d="M363.006,337.067a4.606,4.606,0,1,0,4.606,4.606A4.61,4.61,0,0,0,363.006,337.067Zm0,7.676a3.07,3.07,0,1,1,3.07-3.07A3.074,3.074,0,0,1,363.006,344.743Z" transform="translate(-358.4 -337.067)" fill="#000"/>
      </g>
    </g>
    <g id="Group_6" data-name="Group 6" transform="translate(29.17 80.977)">
      <g id="Group_5" data-name="Group 5" transform="translate(0 0)">
        <path id="Path_59" data-name="Path 59" d="M341.033,177.5l-6.909-10.747a.768.768,0,0,0-.646-.352h-8.444a.767.767,0,0,0-.768.768v19.19a.767.767,0,0,0,.768.768h3.07V185.59h-2.3V167.935h7.257l6.56,10.2v7.451h-3.838v1.535h4.606a.767.767,0,0,0,.768-.768v-8.444A.766.766,0,0,0,341.033,177.5Z" transform="translate(-324.267 -166.4)" fill="#000"/>
      </g>
    </g>
    <g id="Group_8" data-name="Group 8" transform="translate(32.24 84.047)">
      <g id="Group_7" data-name="Group 7" transform="translate(0 0)">
        <path id="Path_60" data-name="Path 60" d="M359.936,207.442v-5.373h6.141v-1.535h-6.909a.767.767,0,0,0-.768.768v6.909a.767.767,0,0,0,.768.768h11.514v-1.535H359.936Z" transform="translate(-358.401 -200.533)" fill="#000"/>
      </g>
    </g>
    <g id="Group_10" data-name="Group 10" transform="translate(0 75.604)">
      <g id="Group_9" data-name="Group 9" transform="translate(0 0)">
        <path id="Path_61" data-name="Path 61" d="M29.937,106.667H.768a.768.768,0,0,0-.768.768V132a.767.767,0,0,0,.768.768H6.909v-1.535H1.535V108.2H29.17v23.029H14.585v1.535H29.937A.767.767,0,0,0,30.7,132V107.435A.767.767,0,0,0,29.937,106.667Z" transform="translate(0 -106.667)" fill="#000"/>
      </g>
    </g>
    <g id="Group_12" data-name="Group 12" transform="translate(0.768 97.097)">
      <g id="Group_11" data-name="Group 11" transform="translate(0 0)">
        <rect id="Rectangle_3" data-name="Rectangle 3" width="4.606" height="1.535" fill="#000"/>
      </g>
    </g>
    <g id="Group_14" data-name="Group 14" transform="translate(16.12 97.097)">
      <g id="Group_13" data-name="Group 13" transform="translate(0 0)">
        <rect id="Rectangle_4" data-name="Rectangle 4" width="13.05" height="1.535" fill="#000"/>
      </g>
    </g>
    <g id="Group_16" data-name="Group 16" transform="translate(42.219 97.097)">
      <g id="Group_15" data-name="Group 15" transform="translate(0 0)">
        <rect id="Rectangle_5" data-name="Rectangle 5" width="3.07" height="1.535" fill="#000"/>
      </g>
    </g>
    <g id="Group_18" data-name="Group 18" transform="translate(3.07 78.674)">
      <g id="Group_17" data-name="Group 17" transform="translate(0 0)">
        <rect id="Rectangle_6" data-name="Rectangle 6" width="26.867" height="1.535" fill="#000"/>
      </g>
    </g>
    <g id="Group_20" data-name="Group 20" transform="translate(9.979 100.167)">
      <g id="Group_19" data-name="Group 19" transform="translate(0 0)">
        <rect id="Rectangle_7" data-name="Rectangle 7" width="1.535" height="1.535" fill="#000"/>
      </g>
    </g>
    <g id="Group_22" data-name="Group 22" transform="translate(36.078 100.167)">
      <g id="Group_21" data-name="Group 21" transform="translate(0 0)">
        <rect id="Rectangle_8" data-name="Rectangle 8" width="1.535" height="1.535" fill="#000"/>
      </g>
    </g>
    <g id="Group_24" data-name="Group 24" transform="translate(3.07 72.533)">
      <g id="Group_23" data-name="Group 23" transform="translate(0 0)">
        <rect id="Rectangle_9" data-name="Rectangle 9" width="10.747" height="1.535" fill="#000"/>
      </g>
    </g>
    <g id="Group_26" data-name="Group 26" transform="translate(0 72.533)">
      <g id="Group_25" data-name="Group 25" transform="translate(0 0)">
        <rect id="Rectangle_10" data-name="Rectangle 10" width="1.535" height="1.535" fill="#000"/>
      </g>
    </g>
  </g>
</svg>
