<svg xmlns="http://www.w3.org/2000/svg" width="68" height="69.619" viewBox="0 0 68 69.619">
  <g id="Group_502" data-name="Group 502" transform="translate(-737 -6947.726)">
    <circle id="Ellipse_82" data-name="Ellipse 82" cx="34" cy="34" r="34" transform="translate(737 6948.989)" fill="#fff"/>
    <g id="icon-gender-symbol2" transform="translate(746.415 6947.726)">
      <path id="Path_134" data-name="Path 134" d="M122.27,17.717a2.039,2.039,0,0,0-2.5,1.442l-1.732,6.464a21.068,21.068,0,0,0-27.673-9.969L84.381,5.285,90.769,7a2.04,2.04,0,1,0,1.056-3.94L80.681.071a2.039,2.039,0,0,0-2.5,1.442L75.2,12.658a2.04,2.04,0,1,0,3.94,1.056l1.712-6.388L86.838,17.7a21.063,21.063,0,0,0-8.825,17.14c0,.418.014.832.038,1.243L74.465,49.464a2.04,2.04,0,1,0,3.94,1.056l1.732-6.465a21.068,21.068,0,0,0,27.673,9.969l3.316,5.744-5.3,3.059a2.04,2.04,0,1,0,2.04,3.533l5.3-3.059,3.059,5.3a2.04,2.04,0,0,0,3.533-2.04l-3.059-5.3L122,58.2a2.04,2.04,0,0,0-2.04-3.533l-5.3,3.059-3.319-5.749a21.063,21.063,0,0,0,8.825-17.14c0-.418-.014-.832-.038-1.244l3.585-13.381a2.039,2.039,0,0,0-1.442-2.5ZM99.089,51.836a17,17,0,1,1,17-17,17.016,17.016,0,0,1-17,17Z" transform="translate(-74.395 -0.001)" fill="#573d1c"/>
    </g>
  </g>
</svg>
