<svg xmlns="http://www.w3.org/2000/svg" width="154.142" height="150" viewBox="0 0 154.142 150">
  <g id="Group_523" data-name="Group 523" transform="translate(-1218.858 -13997)">
    <circle id="Ellipse_91" data-name="Ellipse 91" cx="75" cy="75" r="75" transform="translate(1223 13997)" fill="#fff"/>
    <path id="Path_143" data-name="Path 143" d="M140.172,326.443l-4.5-3.038a8.105,8.105,0,0,0-4.537-1.413h-6.768a14.27,14.27,0,0,0-4.1.6L99.875,328.76a7.527,7.527,0,0,0-4.8,5.021L77.138,322.84a6.349,6.349,0,0,0-4.8-.894,6.111,6.111,0,0,0-1.786.661,7.355,7.355,0,0,0-3.033,3.186,8.777,8.777,0,0,0-.934,3.961,8.131,8.131,0,0,0,3.49,6.887l32.146,21.688a8.1,8.1,0,0,0,4.648,1.491h24.878a7.933,7.933,0,0,0,3.245-.7l5.181-2.307v3h17.657V320H140.172Zm-6.478,28.977a4.79,4.79,0,0,1-1.942.418H106.869a4.879,4.879,0,0,1-2.813-.912l-32.19-21.713a4.081,4.081,0,0,1-1.755-3.457,4.449,4.449,0,0,1,.473-1.991,3.672,3.672,0,0,1,1.517-1.579,3.069,3.069,0,0,1,.883-.323,3.311,3.311,0,0,1,.677-.071,3.165,3.165,0,0,1,1.73.517L94.839,338.16c.022.122.022.241.051.363a7.277,7.277,0,0,0,6.826,5.893,15.592,15.592,0,0,0,2.91-.585l18.345-5.535-.91-3.847-18.285,5.511c-.805.209-1.844.448-2.059.469A3.627,3.627,0,0,1,98.3,337.5a4.063,4.063,0,0,1-.1-.737s-.014-.482,0-.651a3.931,3.931,0,0,1,2.6-3.511l20.383-6.149a11.037,11.037,0,0,1,3.19-.473h6.768a4.852,4.852,0,0,1,2.721.849l6.313,4.262v21.449ZM143.7,323.983H154.3v31.856H143.7Zm0,0" transform="translate(1211.299 13775.532)"/>
    <path id="Path_144" data-name="Path 144" d="M72.823,15.928,63.352,5.248A14.934,14.934,0,0,0,52.115,0h-22.2a8.077,8.077,0,0,0-3.948,1.051L22.012,3.283a4.744,4.744,0,0,1-2.561.625l-1.794-.071V0H0V43.8H17.657V37.828h3l1.068.8a18,18,0,0,0,10.055,3.649V67.693H105.94V15.928Zm-58.7,23.892H3.531V3.982H14.125Zm9.556-4.508-1.964-1.465H17.657V7.821l1.665.067a8.034,8.034,0,0,0,4.269-1.043l3.954-2.232a4.823,4.823,0,0,1,2.373-.631h22.2a11.617,11.617,0,0,1,8.74,4.081l6.975,7.865H53.26L48.974,11.1l-2.5,2.814L58.95,27.975a4.362,4.362,0,0,1,.01,5.646,3.265,3.265,0,0,1-5.007.012L43.536,21.887,42.3,23.082a8.557,8.557,0,0,1-11.9.2l-1.023-.935L27.15,25.438l1.035.946a12.562,12.562,0,0,0,3.6,2.286v9.62a14.731,14.731,0,0,1-8.1-2.979ZM48.8,33.448l2.664,3a6.555,6.555,0,0,0,9.976.01A10.918,10.918,0,0,0,63.76,50.136a8.275,8.275,0,0,0,12.219-1.992A11,11,0,0,0,74.77,34.289a8.23,8.23,0,0,0-12.329.73,8.7,8.7,0,0,0,.578-7.145H86.664c.76,5.009,4.239,8.933,8.682,9.79v8.294c-4.443.856-7.922,4.78-8.682,9.79H51.058c-.76-5.009-4.239-8.933-8.682-9.79V37.663A10.361,10.361,0,0,0,48.8,33.448ZM63.564,41.81c0-3.3,2.372-5.973,5.3-5.973s5.3,2.674,5.3,5.973-2.372,5.973-5.3,5.973S63.564,45.109,63.564,41.81Zm38.845,21.9h-67.1V29.5a11.74,11.74,0,0,0,7.945-2.289l3.012,3.4a6.823,6.823,0,0,1-5.661,3.235H38.845V49.774H40.61c3.9,0,7.063,3.566,7.063,7.964v1.991H90.049V57.738c0-4.4,3.162-7.964,7.063-7.964h1.766V33.846H97.111c-3.9,0-7.063-3.566-7.063-7.964V23.891H60.322l-3.531-3.982h45.618Zm0,0" transform="translate(1218.858 14015.199)"/>
  </g>
</svg>
