<svg xmlns="http://www.w3.org/2000/svg" width="150" height="150" viewBox="0 0 150 150">
  <g id="Group_521" data-name="Group 521" transform="translate(-191.5 -14008.154)">
    <circle id="Ellipse_89" data-name="Ellipse 89" cx="75" cy="75" r="75" transform="translate(191.5 14008.154)" fill="#fff"/>
    <g id="icon-callcenter" transform="translate(202.171 14016.14)">
      <g id="Group_50" data-name="Group 50" transform="translate(0.002 20.799)">
        <g id="Group_49" data-name="Group 49" transform="translate(0)">
          <path id="Path_132" data-name="Path 132" d="M105.082,171.517l-4.815-14.447a14.56,14.56,0,0,0-11.209-9.719l-13.9-2.529v-1.077a20.932,20.932,0,0,0,6.2-5.506h4.2A6.247,6.247,0,0,0,91.8,132V107.039a27.039,27.039,0,1,0-54.078,0V121.6a8.333,8.333,0,0,0,6.633,8.147,20.838,20.838,0,0,0,10.007,14v1.077l-13.9,2.529A14.557,14.557,0,0,0,29.25,157.07l-.832,2.5-7.084-7.084a2.084,2.084,0,0,1,0-2.943l8.216-8.214L14.129,125.906l-9.285,9.285a14.56,14.56,0,0,0,0,20.589l28.11,28.11a14.552,14.552,0,0,0,20.525.062L63.61,174.67l-3.159-3.153ZM87.637,132a2.082,2.082,0,0,1-2.08,2.08H83.808a20.658,20.658,0,0,0,1.356-4.332,8.239,8.239,0,0,0,2.473-.984Zm-2.08-6.818v-7.163a4.124,4.124,0,0,1,0,7.163Zm-41.6,0a4.124,4.124,0,0,1,0-7.163Zm0-13.981v2.375a8.249,8.249,0,0,0-2.08.861v-7.4a22.879,22.879,0,1,1,45.758,0v7.4a8.173,8.173,0,0,0-2.08-.861V111.2h-2.08a22.884,22.884,0,0,1-16.284-6.745l-2.436-2.436-2.436,2.436A22.884,22.884,0,0,1,46.039,111.2Zm4.16,14.559V115.28a26.966,26.966,0,0,0,16.639-7.392A26.955,26.955,0,0,0,81.4,115.28v10.479a16.514,16.514,0,0,1-2.25,8.32H64.758v4.16h10.97a16.613,16.613,0,0,1-27.609-12.48ZM71,145.6v.1l-6.24,6.24-6.24-6.24v-.1a20.783,20.783,0,0,0,12.48,0Zm-37.8,12.785a10.4,10.4,0,0,1,8.006-6.945L55.738,148.8l9.021,9.021,9.019-9.019,14.537,2.642a10.4,10.4,0,0,1,8.006,6.945l2.993,8.971H56.291l-8.1-8.1-9,8.143a2.124,2.124,0,0,1-2.941,0L31.7,162.856Zm-19.067-26.6,9.539,9.539-2.259,2.259-9.539-9.539ZM50.6,180.953a10.4,10.4,0,0,1-14.707,0L7.781,152.841a10.4,10.4,0,0,1,0-14.707l1.144-1.144,9.539,9.539-.075.075a6.25,6.25,0,0,0,0,8.825L33.3,170.344a6.207,6.207,0,0,0,4.414,1.828,6.124,6.124,0,0,0,4.337-1.755l.156-.139,9.582,9.582Zm4.264-3.91L45.3,167.482,48.048,165l9.545,9.545Z" transform="translate(-0.58 -80)"/>
        </g>
      </g>
      <g id="Group_52" data-name="Group 52" transform="translate(87.059)">
        <g id="Group_51" data-name="Group 51">
          <path id="Path_133" data-name="Path 133" d="M370.787,0H341.668a6.247,6.247,0,0,0-6.24,6.24V22.879a6.247,6.247,0,0,0,6.24,6.24h5.556l-2.151,12.544,20.071-12.544h5.643a6.247,6.247,0,0,0,6.24-6.24V6.24A6.247,6.247,0,0,0,370.787,0Zm2.08,22.879a2.083,2.083,0,0,1-2.08,2.08H363.95l-13.21,8.255,1.417-8.255H341.668a2.083,2.083,0,0,1-2.08-2.08V6.24a2.083,2.083,0,0,1,2.08-2.08h29.119a2.083,2.083,0,0,1,2.08,2.08Z" transform="translate(-335.428)"/>
        </g>
      </g>
      <g id="Group_54" data-name="Group 54" transform="translate(95.379 8.32)">
        <g id="Group_53" data-name="Group 53">
          <rect id="Rectangle_101" data-name="Rectangle 101" width="24.959" height="4.16"/>
        </g>
      </g>
      <g id="Group_56" data-name="Group 56" transform="translate(95.379 16.639)">
        <g id="Group_55" data-name="Group 55">
          <rect id="Rectangle_102" data-name="Rectangle 102" width="16.639" height="4.16"/>
        </g>
      </g>
      <g id="Group_58" data-name="Group 58" transform="translate(116.178 16.639)">
        <g id="Group_57" data-name="Group 57">
          <rect id="Rectangle_103" data-name="Rectangle 103" width="4.16" height="4.16"/>
        </g>
      </g>
      <g id="Group_60" data-name="Group 60" transform="translate(0 6.24)">
        <g id="Group_59" data-name="Group 59" transform="translate(0)">
          <path id="Path_134" data-name="Path 134" d="M64.752,24A58.2,58.2,0,0,0,8.081,69.02L4.139,62.45.572,64.59,7.883,76.772l12.182-7.311-2.14-3.567-5.637,3.382a54.092,54.092,0,0,1,68.488-38.7L82.007,26.6A58.2,58.2,0,0,0,64.752,24Z" transform="translate(-0.572 -24)"/>
        </g>
      </g>
      <g id="Group_62" data-name="Group 62" transform="translate(106.197 38.743)">
        <g id="Group_61" data-name="Group 61">
          <path id="Path_135" data-name="Path 135" d="M430.486,156.327,418.3,149.016,411,161.2l3.567,2.14,3.64-6.067a54.124,54.124,0,0,1-9.166,51.526l3.23,2.621a58.245,58.245,0,0,0,9.967-55.193l6.113,3.667Z" transform="translate(-409.036 -149.016)"/>
        </g>
      </g>
    </g>
  </g>
</svg>
