<svg xmlns="http://www.w3.org/2000/svg" width="68" height="68" viewBox="0 0 68 68">
  <g id="icon-5" transform="translate(-960 -6604.5)">
    <path id="Контур_2152" data-name="Контур 2152" d="M34,0A34,34,0,1,1,0,34,34,34,0,0,1,34,0Z" transform="translate(960 6604.5)" fill="#fff"/>
    <g id="icon-person" transform="translate(969.351 6605.319)">
      <ellipse id="Эллипс_18" data-name="Эллипс 18" cx="4.621" cy="4.621" rx="4.621" ry="4.621" transform="translate(5.268 0)" fill="#17823d"/>
      <path id="Контур_103" data-name="Контур 103" d="M29.888,11A4.86,4.86,0,0,0,24.7,5.838H15.257A4.877,4.877,0,0,0,10.04,11l0,14.647a1.977,1.977,0,0,0,1.833,1.69,1.879,1.879,0,0,0,1.758-1.664L15.273,49a1.755,1.755,0,0,0,1.991,1.629A1.753,1.753,0,0,0,19.251,49h1.456a1.757,1.757,0,0,0,1.987,1.629A1.759,1.759,0,0,0,24.688,49l1.688-23.34a1.8,1.8,0,0,0,1.734,1.683,1.971,1.971,0,0,0,1.821-1.694Z" transform="translate(-10.04 4.366)" fill="#17823d"/>
    </g>
    <g id="icon-person-2" data-name="icon-person" transform="translate(999.69 6605.319)">
      <ellipse id="Эллипс_18-2" data-name="Эллипс 18" cx="4.621" cy="4.621" rx="4.621" ry="4.621" transform="translate(5.268 0)" fill="#17823d"/>
      <path id="Контур_103-2" data-name="Контур 103" d="M29.888,11A4.86,4.86,0,0,0,24.7,5.838H15.257A4.877,4.877,0,0,0,10.04,11l0,14.647a1.977,1.977,0,0,0,1.833,1.69,1.879,1.879,0,0,0,1.758-1.664L15.273,49a1.755,1.755,0,0,0,1.991,1.629A1.753,1.753,0,0,0,19.251,49h1.456a1.757,1.757,0,0,0,1.987,1.629A1.759,1.759,0,0,0,24.688,49l1.688-23.34a1.8,1.8,0,0,0,1.734,1.683,1.971,1.971,0,0,0,1.821-1.694Z" transform="translate(-10.04 4.366)" fill="#17823d"/>
    </g>
    <text id="_26" data-name="26" transform="translate(978 6628.5)" fill="#fff" font-size="9" font-family="RobotoSlab-Bold, Roboto Slab" font-weight="700"><tspan x="-5.001" y="0">26</tspan></text>
    <text id="_42" data-name="42" transform="translate(1008 6628.5)" fill="#fff" font-size="9" font-family="RobotoSlab-Bold, Roboto Slab" font-weight="700"><tspan x="-5.023" y="0">42</tspan></text>
  </g>
</svg>
