<svg xmlns="http://www.w3.org/2000/svg" width="65" height="37" viewBox="0 0 65 37">
  <g id="google-pay" transform="translate(-6348 -1330)">
    <g id="google_paz" data-name="google paz">
      <g id="Сгруппировать_1945" data-name="Сгруппировать 1945" transform="translate(6348.382 1329.844)">
        <g id="Сгруппировать_629" data-name="Сгруппировать 629" transform="translate(0 0)">
          <g id="Прямоугольник_135" data-name="Прямоугольник 135" transform="translate(-0.382 0.156)" fill="#fff" stroke="rgba(0,0,0,0.05)" stroke-width="1">
            <rect width="65" height="37" stroke="none"/>
            <rect x="0.5" y="0.5" width="64" height="36" fill="none"/>
          </g>
        </g>
      </g>
    </g>
    <g id="google-pay-seeklogo.com" transform="translate(6361.527 1341.355)">
      <path id="Контур_22740" data-name="Контур 22740" d="M192.429,16.152v4.194H191.1V9.993h3.525a3.2,3.2,0,0,1,2.287.9,2.853,2.853,0,0,1,.949,2.179,2.888,2.888,0,0,1-.949,2.2,3.193,3.193,0,0,1-2.278.883Zm0-4.887V14.88h2.229a1.738,1.738,0,0,0,1.313-.537A1.761,1.761,0,0,0,196,11.851l-.033-.033a1.716,1.716,0,0,0-1.313-.545Zm8.495,1.767a3.323,3.323,0,0,1,2.328.784,2.8,2.8,0,0,1,.85,2.163v4.359h-1.271v-.982h-.058a2.539,2.539,0,0,1-2.2,1.214,2.851,2.851,0,0,1-1.956-.693,2.189,2.189,0,0,1-.784-1.734,2.115,2.115,0,0,1,.834-1.75,3.485,3.485,0,0,1,2.221-.652,4,4,0,0,1,1.948.429v-.305a1.523,1.523,0,0,0-.545-1.172,1.932,1.932,0,0,0-1.28-.487,2.046,2.046,0,0,0-1.767.941l-1.172-.735A3.241,3.241,0,0,1,200.924,13.031Zm-1.717,5.143a1.071,1.071,0,0,0,.438.867,1.623,1.623,0,0,0,1.032.347,2.112,2.112,0,0,0,1.494-.619,1.949,1.949,0,0,0,.66-1.461,2.709,2.709,0,0,0-1.734-.5,2.3,2.3,0,0,0-1.354.388A1.18,1.18,0,0,0,199.207,18.174ZM211.4,13.262l-4.441,10.2h-1.37l1.651-3.566-2.922-6.629h1.445l2.105,5.085h.033l2.056-5.085Z" transform="translate(-174.43 -9.172)" fill="#394143"/>
      <path id="Контур_22741" data-name="Контур 22741" d="M78.7,60.205a7.344,7.344,0,0,0-.1-1.205H73v2.287h3.211a2.752,2.752,0,0,1-1.189,1.808v1.486h1.915A5.8,5.8,0,0,0,78.7,60.205Z" transform="translate(-66.079 -54.133)" fill="#4285f4"/>
      <path id="Контур_22742" data-name="Контур 22742" d="M14.008,90.6a5.685,5.685,0,0,0,3.938-1.436l-1.915-1.486A3.6,3.6,0,0,1,10.673,85.8H8.7v1.535A5.952,5.952,0,0,0,14.008,90.6Z" transform="translate(-7.087 -78.721)" fill="#34a853"/>
      <path id="Контур_22743" data-name="Контур 22743" d="M3.586,43.506a3.586,3.586,0,0,1,0-2.278V39.7H1.613a5.893,5.893,0,0,0,0,5.333Z" transform="translate(0 -36.427)" fill="#fbbc04"/>
      <path id="Контур_22744" data-name="Контур 22744" d="M14.008,2.349a3.2,3.2,0,0,1,2.278.892l1.692-1.692A5.674,5.674,0,0,0,14.008,0,5.945,5.945,0,0,0,8.7,3.273l1.973,1.535A3.553,3.553,0,0,1,14.008,2.349Z" transform="translate(-7.087 0)" fill="#ea4335"/>
    </g>
  </g>
</svg>
