<svg xmlns="http://www.w3.org/2000/svg" width="64" height="37" viewBox="0 0 64 37">
  <g id="Apple_Pay" transform="translate(-6270 -1330)">
    <g id="apple_pay-2" data-name="apple pay">
      <g id="Сгруппировать_1944" data-name="Сгруппировать 1944" transform="translate(6269.824 1329.844)">
        <g id="Сгруппировать_629" data-name="Сгруппировать 629" transform="translate(0 0)">
          <g id="Прямоугольник_135" data-name="Прямоугольник 135" transform="translate(0.176 0.156)" fill="#fff" stroke="rgba(0,0,0,0.05)" stroke-width="1">
            <rect width="64" height="37" stroke="none"/>
            <rect x="0.5" y="0.5" width="63" height="36" fill="none"/>
          </g>
        </g>
      </g>
    </g>
    <path id="Apple_Pay-Logo.wine" d="M6.3,1.824a2.117,2.117,0,0,1-1.7.8A2.4,2.4,0,0,1,5.207.868,2.531,2.531,0,0,1,6.89,0,2.556,2.556,0,0,1,6.3,1.824m.586.929c-.936-.054-1.737.532-2.181.532s-1.131-.5-1.872-.491A2.765,2.765,0,0,0,.48,4.221C-.529,5.958.218,8.53,1.194,9.944c.478.7,1.05,1.468,1.8,1.441.714-.027,1-.465,1.858-.465s1.118.465,1.872.451c.781-.013,1.272-.7,1.75-1.4A6.141,6.141,0,0,0,9.26,8.362,2.537,2.537,0,0,1,7.738,6.052,2.59,2.59,0,0,1,8.97,3.885,2.668,2.668,0,0,0,6.883,2.754M12.289.8V11.3h1.629V7.709h2.255a3.331,3.331,0,0,0,3.508-3.46A3.292,3.292,0,0,0,16.228.8Zm1.629,1.373H15.8a1.958,1.958,0,0,1,2.222,2.08A1.965,1.965,0,0,1,15.79,6.342H13.918Zm8.739,9.2a2.7,2.7,0,0,0,2.4-1.34h.034V11.3H26.6V6.073c0-1.515-1.212-2.491-3.077-2.491-1.73,0-3.009.99-3.057,2.35h1.468a1.43,1.43,0,0,1,1.542-1.07c1,0,1.555.465,1.555,1.32v.579L23,6.881c-1.892.114-2.915.889-2.915,2.235A2.31,2.31,0,0,0,22.657,11.378Zm.438-1.246c-.868,0-1.421-.417-1.421-1.057,0-.66.532-1.044,1.548-1.1l1.811-.114v.592A1.771,1.771,0,0,1,23.095,10.132Zm5.521,4.019c1.589,0,2.336-.606,2.989-2.444l2.861-8.025H32.81l-1.919,6.2h-.034l-1.919-6.2h-1.7L30,11.324l-.148.465a1.3,1.3,0,0,1-1.373,1.091c-.128,0-.377-.013-.478-.027v1.259a4.488,4.488,0,0,0,.619.04Z" transform="translate(6284.768 1341.424)"/>
  </g>
</svg>
