<svg xmlns="http://www.w3.org/2000/svg" width="68" height="68" viewBox="0 0 68 68">
  <g id="Group_672" data-name="Group 672" transform="translate(-639 -10084)">
    <circle id="Ellipse_39" data-name="Ellipse 39" cx="34" cy="34" r="34" transform="translate(639 10084)" fill="#f2dfd7"/>
    <g id="icon-weight-down" transform="translate(647.239 10087.819)">
      <path id="Path_1299" data-name="Path 1299" d="M386.287,204.535a.872.872,0,0,0-.863.881v7.04h-2.271a1.133,1.133,0,0,0-.9,1.786l3.134,4.5a1.1,1.1,0,0,0,1.808,0l3.134-4.5a1.133,1.133,0,0,0-.9-1.786H387.15v-7.04A.872.872,0,0,0,386.287,204.535Zm0,12.462-1.938-2.781h3.876Zm0,0" transform="translate(-338.23 -180.668)"/>
      <path id="Path_1300" data-name="Path 1300" d="M208.1,223.328a2.807,2.807,0,1,0-2.807,2.863A2.839,2.839,0,0,0,208.1,223.328Zm-2.807,1.1a1.1,1.1,0,1,1,1.08-1.1A1.093,1.093,0,0,1,205.292,224.43Zm0,0" transform="translate(-179.264 -194.734)"/>
      <path id="Path_1301" data-name="Path 1301" d="M6.092,53.515H24.014a.881.881,0,0,0,0-1.761H6.092A4.414,4.414,0,0,1,1.727,47.3V6.714A4.414,4.414,0,0,1,6.092,2.261h39.79a4.414,4.414,0,0,1,4.365,4.453V20.851a10.709,10.709,0,0,0-5.411.268A20.4,20.4,0,0,0,6.6,22.517a4.116,4.116,0,0,0,.5,3.654,3.877,3.877,0,0,0,3.183,1.717h9.432A2.025,2.025,0,0,0,21.5,26.821a5.069,5.069,0,0,1,8.973,0,2.024,2.024,0,0,0,1.786,1.067h5.6C34.935,36.057,41.918,44.3,50.248,42.565V47.3a4.414,4.414,0,0,1-4.365,4.453H28.042a.881.881,0,0,0,0,1.761h17.84A6.161,6.161,0,0,0,51.974,47.3V42.05A11.041,11.041,0,0,0,58.7,33.938a.88.88,0,0,0-.672-1.039.863.863,0,0,0-1.019.686,9.18,9.18,0,0,1-8.949,7.443c-7.089,0-11.477-7.913-7.842-14.107a9.074,9.074,0,0,1,7.842-4.535,9.179,9.179,0,0,1,8.949,7.443.863.863,0,0,0,1.019.686.88.88,0,0,0,.672-1.039,11.042,11.042,0,0,0-6.723-8.112V6.714A6.16,6.16,0,0,0,45.882.5H6.092A6.16,6.16,0,0,0,0,6.714V47.3a6.16,6.16,0,0,0,6.092,6.214Zm13.894-27.54a.308.308,0,0,1-.272.153H18.271A8.454,8.454,0,0,1,28.1,21.243l-.5,1.3a6.793,6.793,0,0,0-7.615,3.432Zm12.274.153a.308.308,0,0,1-.273-.153,6.913,6.913,0,0,0-2.774-2.8l.505-1.323a8.632,8.632,0,0,1,4.066,4.278Zm6.409,0H35.641a10.386,10.386,0,0,0-5.294-5.922l2.263-5.928a.886.886,0,0,0-.491-1.14.858.858,0,0,0-1.118.5l-2.273,5.956a10.184,10.184,0,0,0-12.313,6.534H10.3a2.177,2.177,0,0,1-1.785-.967A2.292,2.292,0,0,1,8.229,23.1,18.864,18.864,0,0,1,25.987,10.256,18.932,18.932,0,0,1,43.234,21.772a11.04,11.04,0,0,0-4.565,4.355Zm0,0" transform="translate(-0.001 -0.5)"/>
    </g>
  </g>
</svg>
