<svg xmlns="http://www.w3.org/2000/svg" width="150" height="156.031" viewBox="0 0 150 156.031">
  <g id="Group_596" data-name="Group 596" transform="translate(-52 -8238.386)">
    <circle id="Ellipse_46" data-name="Ellipse 46" cx="75" cy="75" r="75" transform="translate(52 8244.418)" fill="#d7d8df"/>
    <path id="Path_2141" data-name="Path 2141" d="M80.9,8239.213c7.142,42.932-31.19,34.448-15.351,93.974C70.607,8293.583,97.419,8260.711,80.9,8239.213Z" transform="translate(12.655 1.081)" fill="#ebbc00"/>
    <path id="Path_2147" data-name="Path 2147" d="M66.99,8239.213c-7.142,42.932,31.19,34.448,15.351,93.974C77.284,8293.583,50.472,8260.711,66.99,8239.213Z" transform="translate(97.054 1.081)" fill="#ebbc00"/>
    <g id="icon-body-shaping" transform="translate(59.166 8238.386)">
      <path id="Path_2136" data-name="Path 2136" d="M317.495,45.39a2.695,2.695,0,1,0-2.695-2.695A2.7,2.7,0,0,0,317.495,45.39Z" transform="translate(-229.966 -29.194)" fill="#6f2dbd"/>
      <circle id="Ellipse_73" data-name="Ellipse 73" cx="2.695" cy="2.695" r="2.695" transform="translate(67.048 53.924)" fill="#6f2dbd"/>
      <path id="Path_2137" data-name="Path 2137" d="M319.54,80a2.7,2.7,0,0,0-2.641,2.749,59.42,59.42,0,0,0,7.357,27.568,2.7,2.7,0,1,0,4.716-2.614,54.063,54.063,0,0,1-6.683-25.062A2.686,2.686,0,0,0,319.54,80Z" transform="translate(-231.499 -58.41)" fill="#6f2dbd"/>
      <path id="Path_2138" data-name="Path 2138" d="M155.976,43.988a43.136,43.136,0,0,1-5.2-17.139C149.8,12.081,153.2,4.885,155.464-.1l-4.8.027-2.021,5.39A48.7,48.7,0,0,0,151.287,46.6c.027.054,3.072,5.551,5.336,9.971a93.117,93.117,0,0,1-37.782,8.058A93.117,93.117,0,0,1,81.06,56.573c2.264-4.42,5.309-9.917,5.336-9.971A48.608,48.608,0,0,0,92.4,24.234,49.381,49.381,0,0,0,89.036,5.317L87.015-.073h-4.8c2.237,4.985,5.632,12.154,4.689,26.948a43.267,43.267,0,0,1-5.2,17.139C72,61.908,66.7,71.448,67.208,86.27c.62,18,9.567,39.857,17.867,50.609A2.655,2.655,0,0,0,87.2,137.93h26.275a2.7,2.7,0,0,0,2.695-2.695V100.579a18.122,18.122,0,0,0,2.695.189,22.643,22.643,0,0,0,2.695-.189v34.629a2.7,2.7,0,0,0,2.695,2.695h26.275a2.654,2.654,0,0,0,2.129-1.051c8.3-10.725,17.247-32.581,17.867-50.609C170.986,71.421,165.678,61.881,155.976,43.988ZM110.73,132.513H88.5C81.087,122.3,73.083,102.2,72.517,86.081a39.887,39.887,0,0,1,.7-9.863C82.973,79.91,94.4,86.836,107.226,96.807a19.418,19.418,0,0,0,3.5,2.156Zm8.085-37.135a13.485,13.485,0,0,1-8.273-2.83C97.094,82.093,85.048,74.844,74.673,70.99a88.48,88.48,0,0,1,3.988-9.621,98.736,98.736,0,0,0,40.153,8.6c13.771,0,28.592-3.18,40.153-8.6a86.312,86.312,0,0,1,3.988,9.621c-10.375,3.854-22.448,11.076-35.868,21.559A13.429,13.429,0,0,1,118.814,95.378Zm46.27-9.3c-.566,16.115-8.57,36.219-15.98,46.432H126.872V98.962a18.848,18.848,0,0,0,3.5-2.156c12.827-9.971,24.227-16.9,34.009-20.589A38.631,38.631,0,0,1,165.085,86.081Z" transform="translate(-49.072 0.1)" fill="#6f2dbd"/>
      <path id="Path_2139" data-name="Path 2139" d="M434.726,57.87h-15.6l3.207-3.207a2.687,2.687,0,0,0-3.8-3.8l-7.815,7.815a2.749,2.749,0,0,0-.647,2.83,2.559,2.559,0,0,0,.647.97l7.815,7.815a2.646,2.646,0,0,0,1.913.782,2.761,2.761,0,0,0,1.913-.782,2.684,2.684,0,0,0,0-3.8l-3.234-3.234h15.6a2.695,2.695,0,0,0,0-5.39Z" transform="translate(-299.445 -36.554)" fill="#6f2dbd" fill-rule="evenodd"/>
      <path id="Path_2140" data-name="Path 2140" d="M0,60.492a2.7,2.7,0,0,0,2.695,2.695H18.3l-3.207,3.207a2.684,2.684,0,0,0,0,3.8A2.646,2.646,0,0,0,17,70.975a2.76,2.76,0,0,0,1.913-.782l7.815-7.815a3.394,3.394,0,0,0,.647-.97,2.7,2.7,0,0,0-.647-2.83l-7.815-7.815a2.687,2.687,0,1,0-3.8,3.8L18.3,57.8H2.695A2.7,2.7,0,0,0,0,60.492Z" transform="translate(0 -36.481)" fill="#6f2dbd" fill-rule="evenodd"/>
    </g>
  </g>
</svg>
