<svg xmlns="http://www.w3.org/2000/svg" width="68" height="68" viewBox="0 0 68 68">
  <g id="icon-2" transform="translate(-557 -6777)">
    <circle id="Эллипс_80" data-name="Эллипс 80" cx="34" cy="34" r="34" transform="translate(557 6777)" fill="#fff"/>
    <g id="icon-people" transform="translate(566.334 6789.311)">
      <path id="Контур_102" data-name="Контур 102" d="M36.02,22.617a9.112,9.112,0,0,1,4.272,6.774,7.349,7.349,0,1,0-4.272-6.774Zm-4.854,15.07a7.36,7.36,0,1,0-7.41-7.36A7.385,7.385,0,0,0,31.165,37.686Zm3.143.5H28.022a9.466,9.466,0,0,0-9.486,9.423v7.638l.02.119.53.165a43.461,43.461,0,0,0,12.9,2.066c6.972,0,11.012-1.974,11.261-2.1l.495-.249h.053V47.611A9.463,9.463,0,0,0,34.308,38.187Zm12.257-7.6H40.328a9.044,9.044,0,0,1-2.818,6.318,11.207,11.207,0,0,1,8.051,10.715v2.354A25.692,25.692,0,0,0,55.5,47.9L56,47.653h.053v-7.64A9.465,9.465,0,0,0,46.566,30.59Zm-28.4-.5a7.394,7.394,0,0,0,3.94-1.135,9.1,9.1,0,0,1,3.446-5.809c.008-.138.021-.274.021-.413a7.408,7.408,0,1,0-7.407,7.358Zm6.653,6.821A9.05,9.05,0,0,1,22,30.626c-.231-.017-.46-.036-.7-.036H15.022a9.465,9.465,0,0,0-9.486,9.423v7.638l.02.118.53.165a44.741,44.741,0,0,0,10.682,2V47.623A11.209,11.209,0,0,1,24.819,36.908Z" transform="translate(-5.536 -15.369)" fill="#17823d"/>
    </g>
  </g>
</svg>
