<svg xmlns="http://www.w3.org/2000/svg" width="150" height="150" viewBox="0 0 150 150">
  <g id="Group_508" data-name="Group 508" transform="translate(-771 -7036)">
    <circle id="Ellipse_84" data-name="Ellipse 84" cx="75" cy="75" r="75" transform="translate(771 7036)" fill="#96e6b3"/>
    <g id="icon-milk-glass" transform="translate(795.07 7037)">
      <path id="Path_104" data-name="Path 104" d="M72.544,30.293a2.273,2.273,0,0,0-.111-.468l-6.2-17.313V5.931A5.941,5.941,0,0,0,60.3,0H31.228a5.941,5.941,0,0,0-5.937,5.931v6.6L19.31,29.85a2.275,2.275,0,0,0-.125.739v83.142A2.266,2.266,0,0,0,21.451,116H70.3a2.266,2.266,0,0,0,2.266-2.266V30.59a2.273,2.273,0,0,0-.022-.3ZM29.171,15.172h33.2l4.71,13.153H24.631ZM23.717,32.855H59.534c-5.436,4.613-11.966,6.329-19.819,5.236a17.56,17.56,0,0,0-15.672,5.751q-.166.176-.326.353Zm0,19.405a21.251,21.251,0,0,1,3.714-5.4,13.01,13.01,0,0,1,11.66-4.276,31.064,31.064,0,0,0,14.554-1.165,29.044,29.044,0,0,0,12.316-8.559h2.074V67.12c-6.623,9.245-15.5,11.552-27.89,7.255C32.722,71.8,27.486,73.807,24.4,75.943c-.237.164-.464.332-.684.5Zm6.105-46.33a1.4,1.4,0,0,1,1.406-1.4H60.3a1.4,1.4,0,0,1,1.406,1.4v4.71H29.822ZM68.035,111.466H23.717V83c1.1-1.706,5.674-7.56,14.943-4.345,6.814,2.364,12.715,2.924,18.039,1.712a23.629,23.629,0,0,0,11.336-6.294Z" transform="translate(-19.185 0)" fill="#6f2dbd"/>
      <path id="Path_105" data-name="Path 105" d="M157.478,451a2.266,2.266,0,0,0,2.266,2.266h7.673a2.266,2.266,0,1,0,0-4.531h-7.673A2.266,2.266,0,0,0,157.478,451Z" transform="translate(-126.147 -347.072)" fill="#6f2dbd"/>
      <path id="Path_106" data-name="Path 106" d="M331.661,195.081a2.266,2.266,0,0,0-1.667-.732H287.5a2.266,2.266,0,0,0-2.258,2.45l1.072,13.135c0,.009,0,.018,0,.027l2.793,34.224.886,10.864v5.389a5.886,5.886,0,0,0,5.883,5.877h25.636a5.886,5.886,0,0,0,5.883-5.877v-5.387l1.16-13.9a2.266,2.266,0,0,0-4.516-.377l-.994,11.914h-28.7l-.708-8.679-2.608-31.97h35.405l-.743,8.908a2.266,2.266,0,0,0,4.517.377l2.046-24.524A2.268,2.268,0,0,0,331.661,195.081Zm-10.153,66.7H295.872a1.35,1.35,0,0,1-1.352-1.345v-3.216h28.34v3.216A1.35,1.35,0,0,1,321.509,261.784Zm-30.851-54.273-.7-8.631h37.578l-.72,8.631Z" transform="translate(-224.955 -150.318)" fill="#6f2dbd"/>
      <path id="Path_107" data-name="Path 107" d="M464.563,346.9a2.263,2.263,0,1,0-.917,2.8A2.281,2.281,0,0,0,464.563,346.9Z" transform="translate(-360.289 -267.25)" fill="#6f2dbd"/>
      <path id="Path_108" data-name="Path 108" d="M53.812,242.569a1.7,1.7,0,0,0,1.974-1.37l.539-2.985.912,3.092c.006.02.012.041.019.061a1.909,1.909,0,0,0,1.812,1.3h.01a1.908,1.908,0,0,0,1.808-1.321c.006-.019.012-.039.018-.059l.88-3.087.576,3.014a1.7,1.7,0,1,0,3.338-.638l-1.755-9.183a1.912,1.912,0,0,0-3.692-.207c-.006.019-.012.038-.017.058l-1.19,4.175-1.237-4.192c-.006-.02-.012-.04-.019-.06a1.912,1.912,0,0,0-3.693.266l-1.653,9.16A1.7,1.7,0,0,0,53.812,242.569Z" transform="translate(-44.886 -177.787)" fill="#6f2dbd"/>
      <path id="Path_109" data-name="Path 109" d="M145.5,242.637a7.847,7.847,0,0,0,1.252.033c.511,0,1.251,0,2.339-.009a1.7,1.7,0,0,0-.009-3.4h-.01l-1.585.007v-7.706a1.7,1.7,0,0,0-3.4,0v9.4A1.7,1.7,0,0,0,145.5,242.637Z" transform="translate(-115.79 -177.787)" fill="#6f2dbd"/>
      <path id="Path_110" data-name="Path 110" d="M183.658,242.671a1.7,1.7,0,0,0,1.7-1.7v-1.2l2.515,2.426a1.7,1.7,0,1,0,2.359-2.445l-3.794-3.66,3.431-3.153a1.7,1.7,0,1,0-2.3-2.5l-2.211,2.032v-.9a1.7,1.7,0,0,0-3.4,0v9.406A1.7,1.7,0,0,0,183.658,242.671Z" transform="translate(-145.081 -177.789)" fill="#6f2dbd"/>
      <path id="Path_111" data-name="Path 111" d="M120.774,242.67a1.7,1.7,0,0,0,1.7-1.7v-9.406a1.7,1.7,0,0,0-3.4,0v9.406A1.7,1.7,0,0,0,120.774,242.67Z" transform="translate(-96.444 -177.787)" fill="#6f2dbd"/>
    </g>
  </g>
</svg>
