<svg xmlns="http://www.w3.org/2000/svg" width="150" height="164.068" viewBox="0 0 150 164.068">
  <g id="Group_520" data-name="Group 520" transform="translate(-191.5 -13871.005)">
    <circle id="Ellipse_88" data-name="Ellipse 88" cx="75" cy="75" r="75" transform="translate(191.5 13885.073)" fill="#fff"/>
    <g id="icon-form" transform="translate(217.172 13871.005)">
      <path id="Path_122" data-name="Path 122" d="M121.331,39.955a4.7,4.7,0,0,0-2.2-2.872l-3.979-2.3a4.732,4.732,0,0,0-6.463,1.731l-2.375,4.112a4.726,4.726,0,0,0-6.1,1.918l-.15.259V25.285A10.152,10.152,0,0,0,89.919,15.144H75.126a4.737,4.737,0,0,0-4.679-4.056h-6.9v-5A6.092,6.092,0,0,0,57.467,0H42.593a6.092,6.092,0,0,0-6.085,6.085v5h-6.9a4.737,4.737,0,0,0-4.679,4.056H10.141A10.152,10.152,0,0,0,0,25.285V128.32a10.152,10.152,0,0,0,10.141,10.141H73.435a2.028,2.028,0,0,0,0-4.056H10.141a6.092,6.092,0,0,1-6.085-6.085V25.285A6.092,6.092,0,0,1,10.141,19.2H24.88v9.871A4.738,4.738,0,0,0,29.612,33.8H70.447a4.738,4.738,0,0,0,4.733-4.733V27.178H88.026V63.651L67.387,99.4a7.4,7.4,0,0,0-.977,4.247l.9,12.67a3.379,3.379,0,0,0,4.793,2.825l11.66-5.408a7.4,7.4,0,0,0,3.311-3.027l.948-1.641v17.363H12.034V27.178h5.409a2.028,2.028,0,1,0,0-4.056H11.358a3.384,3.384,0,0,0-3.38,3.38V127.1a3.384,3.384,0,0,0,3.38,3.38H88.7a3.384,3.384,0,0,0,3.38-3.38V102.037L96,95.246V128.32a6.092,6.092,0,0,1-6.085,6.085H82.9a2.028,2.028,0,0,0,0,4.057h7.02A10.153,10.153,0,0,0,100.06,128.32V88.22l17.111-29.638,2.7-4.682a4.727,4.727,0,0,0-1.39-6.242l2.375-4.112a4.7,4.7,0,0,0,.472-3.591Zm-9.133-1.41a.676.676,0,0,1,.922-.247l3.979,2.3a.675.675,0,0,1,.247.922l-2.365,4.1-5.148-2.972Zm-8.475,6.031a.671.671,0,0,1,.41-.314.662.662,0,0,1,.511.067l11.47,6.622a.674.674,0,0,1,.247.921L114.672,54.8l-12.637-7.3ZM40.565,6.085a2.03,2.03,0,0,1,2.028-2.028H57.467a2.03,2.03,0,0,1,2.028,2.028v5H40.565ZM71.124,29.071a.677.677,0,0,1-.676.676H29.612a.677.677,0,0,1-.676-.676V15.82a.677.677,0,0,1,.676-.676H70.447a.677.677,0,0,1,.676.676ZM88.7,23.122H75.18V19.2H89.919A6.092,6.092,0,0,1,96,25.285V49.833l-3.921,6.791V26.5a3.384,3.384,0,0,0-3.38-3.38Zm11.3,27.893,12.637,7.3L87.778,101.379l-12.639-7.3Zm-16.44,57.662a3.361,3.361,0,0,1-1.5,1.374h0L71.29,115.047l-.835-11.691a3.357,3.357,0,0,1,.445-1.929L73.112,97.6l12.638,7.3Zm0,0" transform="translate(0 0)"/>
      <path id="Path_123" data-name="Path 123" d="M75.619,393.138a1.994,1.994,0,0,0,2.815-.167l3.954-4.452,3.061,3.651a3.323,3.323,0,0,0,4.992.117l3.681-4,4.08,4.618a1.994,1.994,0,1,0,2.989-2.64L96.623,385.1a3.327,3.327,0,0,0-2.456-1.123h-.034a3.328,3.328,0,0,0-2.445,1.072l-3.668,3.982-3.07-3.661a3.325,3.325,0,0,0-2.5-1.188,3.291,3.291,0,0,0-2.531,1.117l-4.465,5.027A1.994,1.994,0,0,0,75.619,393.138Zm0,0" transform="translate(-54.582 -280.001)"/>
      <path id="Path_124" data-name="Path 124" d="M131.376,159.994A1.994,1.994,0,0,0,129.382,158H72.744a1.994,1.994,0,1,0,0,3.989h56.638A1.994,1.994,0,0,0,131.376,159.994Zm0,0" transform="translate(-51.287 -115.25)"/>
      <path id="Path_125" data-name="Path 125" d="M73.744,201.989H97.41a1.994,1.994,0,1,0,0-3.989H73.744a1.994,1.994,0,1,0,0,3.989Zm0,0" transform="translate(-52.249 -144.427)"/>
      <path id="Path_126" data-name="Path 126" d="M209.045,199.994A1.994,1.994,0,0,0,207.051,198h-9.307a1.994,1.994,0,1,0,0,3.989h9.307A1.994,1.994,0,0,0,209.045,199.994Zm0,0" transform="translate(-142.702 -144.427)"/>
      <path id="Path_127" data-name="Path 127" d="M73.744,241.989H92.889a1.994,1.994,0,0,0,0-3.989H73.744a1.994,1.994,0,1,0,0,3.989Zm0,0" transform="translate(-52.268 -173.605)"/>
      <path id="Path_128" data-name="Path 128" d="M186.785,238h-9.041a1.994,1.994,0,1,0,0,3.989h9.041a1.994,1.994,0,1,0,0-3.989Zm0,0" transform="translate(-128.124 -173.605)"/>
      <path id="Path_129" data-name="Path 129" d="M73.744,281.989H87.571a1.994,1.994,0,1,0,0-3.989H73.744a1.994,1.994,0,1,0,0,3.989Zm0,0" transform="translate(-52.289 -202.782)"/>
      <path id="Path_130" data-name="Path 130" d="M174.1,279.994A1.994,1.994,0,0,0,172.1,278H157.744a1.994,1.994,0,1,0,0,3.989H172.1A1.994,1.994,0,0,0,174.1,279.994Zm0,0" transform="translate(-113.502 -202.782)"/>
      <path id="Path_131" data-name="Path 131" d="M73.744,321.988H87.571a1.994,1.994,0,1,0,0-3.989H73.744a1.994,1.994,0,1,0,0,3.989Zm0,0" transform="translate(-52.289 -231.959)"/>
    </g>
  </g>
</svg>
