<svg xmlns="http://www.w3.org/2000/svg" width="68" height="68" viewBox="0 0 68 68">
  <g id="Group_519" data-name="Group 519" transform="translate(-15 -9354.5)">
    <circle id="Ellipse_31" data-name="Ellipse 31" cx="34" cy="34" r="34" transform="translate(15 9354.5)" fill="#6f2dbd"/>
    <g id="icon-phone_in_talk-24px" transform="translate(25.471 9365.477)">
      <path id="Path_120" data-name="Path 120" d="M0,0H46.649V46.649H0Z" fill="none"/>
      <path id="Path_121" data-name="Path 121" d="M36.043,27.3A22.081,22.081,0,0,1,29.1,26.188a1.984,1.984,0,0,0-1.983.466l-4.276,4.276A29.243,29.243,0,0,1,10.036,18.122l4.276-4.3a1.866,1.866,0,0,0,.486-1.944A22.081,22.081,0,0,1,13.69,4.944,1.949,1.949,0,0,0,11.747,3h-6.8A1.949,1.949,0,0,0,3,4.944,33.04,33.04,0,0,0,36.043,37.986a1.949,1.949,0,0,0,1.944-1.944v-6.8A1.949,1.949,0,0,0,36.043,27.3Zm-1.944-6.8h3.887A17.5,17.5,0,0,0,20.493,3V6.887A13.6,13.6,0,0,1,34.1,20.493Zm-7.775,0h3.887a9.722,9.722,0,0,0-9.718-9.718v3.887A5.823,5.823,0,0,1,26.324,20.493Z" transform="translate(2.831 2.831)" fill="#96e6b3"/>
    </g>
  </g>
</svg>
