<?xml version="1.0" encoding="utf-8"?>
<!-- Generator: Adobe Illustrator 25.0.0, SVG Export Plug-In . SVG Version: 6.00 Build 0)  -->
<svg version="1.1" id="Warstwa_1" xmlns="http://www.w3.org/2000/svg" xmlns:xlink="http://www.w3.org/1999/xlink" x="0px" y="0px"
	 viewBox="0 0 420.6 132" style="enable-background:new 0 0 420.6 132;" xml:space="preserve">
<g>
	<g>
		<g>
			<g>
				<g>
					<path d="M24.6,56c-4.7-5.7-7.1-13-7.1-21.9s2.4-16.2,7.2-22c4.8-5.8,11.7-8.6,20.8-8.6c5.8,0,10.5,1.1,14.2,3.3
						c3.7,2.2,5.5,5.1,5.5,8.8c0,3.5-1.5,6.3-4.4,8.3c-2.9,2-6.6,3-11.1,3c2.5-2.7,3.8-6.3,3.8-11c0-2.7-0.8-4.9-2.5-6.7
						c-1.6-1.8-3.8-2.7-6.4-2.7c-4.8,0-8.3,2.7-10.5,8.2c-2.2,5.5-3.3,11.9-3.3,19.4c0,4.8,0.7,9.2,2.1,13.1c1.4,3.9,3.4,7.1,6,9.4
						c2.6,2.3,5.7,3.5,9.1,3.5c3.9,0,7.2-0.8,9.9-2.5c2.6-1.6,5.1-3.9,7.2-6.9l1.5,1.1c-2.3,3.8-5.2,6.8-8.8,9.2
						c-3.6,2.4-7.8,3.5-12.7,3.5C36.2,64.5,29.4,61.7,24.6,56z"/>
					<path d="M115.4,60c1.6,0,3.2-0.6,4.7-1.9l1,1.3c-3.1,3.4-6.8,5.2-11,5.2c-3,0-5.2-0.8-6.5-2.3c-1.3-1.6-2-4.1-2-7.6V35.3
						c0-4.9-1.6-7.3-4.7-7.3c-3,0-5.5,2.1-7.3,6.2c-1.8,4.1-2.8,9.5-2.8,16.1c0,2.6,0.2,4.7,0.6,6.2c0.4,1.6,1,3,2,4.3l1,1.3l-1,1.3
						H71.2l-0.8-2.1l1.8-0.4c1.3-0.3,2.2-0.9,2.6-1.6c0.4-0.7,0.6-2.1,0.6-4.2v-45c0-0.7-0.1-1.2-0.4-1.6c-0.3-0.4-0.7-0.6-1.2-0.6
						h-3.9l-0.5-1.3C71,5.1,73.1,3.9,75.6,3c2.6-0.9,5.1-1.3,7.6-1.3c1.1,0,2,0.2,2.6,0.7c0.7,0.5,1,1.1,1,2v31.1
						c1.2-3.9,3.3-7.2,6.2-9.9c3-2.6,6.2-4,9.5-4c3.6,0,6.2,1.2,7.9,3.5c1.6,2.4,2.5,6.1,2.5,11.2v19.9C113,58.7,113.8,60,115.4,60z
						"/>
					<path d="M130.6,27.4c3.8-3.9,9-5.8,15.6-5.8c6.5,0,11.8,2,15.6,5.9s5.8,9.1,5.8,15.7s-1.9,11.8-5.8,15.6s-9.1,5.8-15.6,5.8
						c-6.6,0-11.7-1.9-15.6-5.8c-3.8-3.9-5.7-9.1-5.7-15.6C124.8,36.5,126.7,31.2,130.6,27.4z M152.4,29.6c-1.6-3.6-3.6-5.4-6-5.4
						c-2.7,0-4.9,1.7-6.6,5.2c-1.7,3.5-2.5,8-2.5,13.7c0,5.7,0.8,10.2,2.3,13.6c1.6,3.4,3.6,5,6.2,5c2.6,0,4.7-1.7,6.4-5.1
						c1.7-3.4,2.5-7.8,2.5-13.3C154.8,37.8,154,33.2,152.4,29.6z"/>
					<path d="M208,39.2c-1.7,1.6-3.7,2.4-6.2,2.4c-1.9,0-3.7-0.5-5.3-1.5c1.8-1.7,2.8-4,2.8-7.1c0-2.4-0.5-4.4-1.5-6
						c-1-1.6-2.5-2.3-4.4-2.3c-2.2,0-4,1.7-5.4,5.1c-1.4,3.4-2.1,7.8-2.1,13.3c0,5.2,1,9.4,3,12.5c2,3.2,4.8,4.7,8.4,4.7
						c2.5,0,4.7-0.5,6.5-1.4c1.8-0.9,3.5-2.3,5.1-4l1.5,1c-1.8,2.5-4.1,4.6-6.9,6.2c-2.9,1.6-6.2,2.4-10,2.4c-5.9,0-10.7-2-14.5-5.9
						c-3.8-3.9-5.7-9-5.7-15.2c0-6.6,2-11.9,5.9-15.9s9.2-5.9,15.7-5.9c4.6,0,8.4,1,11.2,3.1c2.9,2.1,4.3,4.7,4.3,8
						C210.5,35.4,209.7,37.6,208,39.2z"/>
					<path d="M221.4,27.4c3.8-3.9,9-5.8,15.6-5.8c6.5,0,11.8,2,15.6,5.9c3.9,3.9,5.8,9.1,5.8,15.7s-1.9,11.8-5.8,15.6
						c-3.9,3.9-9.1,5.8-15.6,5.8c-6.6,0-11.7-1.9-15.6-5.8c-3.8-3.9-5.7-9.1-5.7-15.6C215.7,36.5,217.6,31.2,221.4,27.4z
						 M243.3,29.6c-1.6-3.6-3.6-5.4-6-5.4c-2.7,0-4.9,1.7-6.6,5.2c-1.7,3.5-2.5,8-2.5,13.7c0,5.7,0.8,10.2,2.3,13.6
						c1.6,3.4,3.6,5,6.2,5c2.6,0,4.7-1.7,6.4-5.1c1.7-3.4,2.5-7.8,2.5-13.3C245.7,37.8,244.9,33.2,243.3,29.6z"/>
					<path d="M281.6,60c1.6,0,3.1-0.6,4.7-1.9l1,1.3c-2.9,3.4-6.6,5.2-11,5.2c-2.9,0-5.1-0.7-6.4-2.1s-2-3.6-2-6.6V9.6
						c0-1.2-0.5-1.8-1.6-1.8h-4l-0.4-1.3c1.6-1.5,3.7-2.7,6.2-3.6c2.6-0.9,5.1-1.3,7.6-1.3c1.1,0,2,0.2,2.6,0.7
						c0.6,0.5,0.9,1.1,0.9,2v51.9C279.2,58.7,280,60,281.6,60z"/>
					<path d="M298.2,37.1c-1.8,0-3.1-0.5-4.2-1.6c-1-1.1-1.5-2.5-1.5-4.5c0-2.9,1.4-5.1,4.2-6.9c2.8-1.7,6.5-2.6,11-2.6
						c5.4,0,9.6,1.2,12.7,3.5c3.1,2.4,4.6,5.5,4.6,9.6v21.8c0,2.4,0.8,3.5,2.5,3.5c1.6,0,3.1-0.6,4.7-1.9l1,1.3
						c-3.1,3.4-6.8,5.2-11.1,5.2c-2.5,0-4.4-0.6-5.7-1.9c-1.3-1.3-2.1-3.2-2.3-5.9h-0.5c-1.3,2.4-3.1,4.3-5.4,5.7s-4.8,2.1-7.6,2.1
						c-3.2,0-5.8-1-7.7-3c-1.9-2-2.9-4.6-2.9-7.7c0-3.6,1.7-6.5,5.2-8.6c3.4-2.1,8.1-3.2,14-3.2c1.1,0,2.6,0.1,4.7,0.3v-6.3
						c0-4.1-0.5-7.1-1.5-8.9c-1-1.8-2.6-2.7-4.9-2.7c-1.6,0-2.9,0.5-3.8,1.5c-0.9,1-1.4,2.3-1.4,3.9c0,2.5,0.8,4.4,2.3,5.7
						C302.7,36.6,300.6,37.1,298.2,37.1z M313.8,44.8c-4.2,0-7.4,0.7-9.4,2.1c-2.1,1.4-3.2,3.3-3.2,5.9c0,1.7,0.5,3,1.4,4
						c0.9,1,2.2,1.5,3.8,1.5C311.3,58.2,313.8,53.8,313.8,44.8z"/>
					<path d="M342.5,62.2c-1.5-1.6-2.3-4.1-2.3-7.6V27.9H334c0-1.4,0.1-2.3,0.3-2.8c0.2-0.4,0.7-0.8,1.5-1c2.8-0.8,5-1.9,6.6-3.5
						c1.6-1.6,2.9-3.9,3.9-6.9c0.3-0.9,0.7-1.5,1.3-1.7c0.6-0.2,2-0.3,4.3-0.3V23H362c0,1.1-0.2,2.1-0.5,3c-0.3,0.9-0.8,1.5-1.4,2
						h-8.4v28.3c0,2.5,1,3.8,3.1,3.8c0.9,0,2-0.3,3.1-0.9c1.1-0.6,2.2-1.4,3.1-2.4l1,1.3c-3.6,4.4-7.6,6.6-12.1,6.6
						C346.5,64.5,344,63.8,342.5,62.2z"/>
					<path d="M396.3,59.1c1.8-0.9,3.7-2.4,5.4-4.5l1.5,1.1c-1.9,2.8-4.4,4.9-7.4,6.5c-3,1.6-6.2,2.3-9.8,2.3
						c-3.9,0-7.3-0.9-10.4-2.8c-3.1-1.8-5.5-4.4-7.2-7.6c-1.8-3.2-2.6-6.9-2.6-11c0-6.6,2-11.8,6-15.7s9.3-5.9,15.9-5.9
						c4.7,0,8.5,1.1,11.5,3.3c3,2.2,4.5,5.1,4.5,8.6c0,4-1.7,7.2-5.1,9.6c-3.4,2.4-8,3.6-13.9,3.6c-2.4,0-4.5-0.2-6.4-0.5
						c0.4,4.4,1.7,7.8,3.8,10.3c2.1,2.5,4.7,3.8,7.8,3.8C392.3,60.4,394.5,59.9,396.3,59.1z M380.3,29.3c-1.5,3.1-2.2,7.5-2.2,13.2
						v2c0.9,0,2.1-0.1,3.4-0.3c3.5-0.4,6.2-1.6,8.1-3.5c1.9-1.9,2.8-4.4,2.8-7.5c0-2.5-0.6-4.6-1.7-6.2c-1.1-1.6-2.6-2.5-4.3-2.5
						C383.8,24.6,381.7,26.2,380.3,29.3z"/>
				</g>
				<g>
					<g>
						<path d="M23.8,86h17c4.5,0,8.4,0.9,11.9,2.8c3.5,1.8,6.1,4.4,8.1,7.6c1.9,3.2,2.9,6.9,2.9,11.1c0,4.1-1,7.8-2.9,11.1
							c-1.9,3.2-4.6,5.8-8.1,7.6c-3.5,1.8-7.4,2.8-11.9,2.8h-17V86z M40.5,126.1c4,0,7.5-0.8,10.5-2.4c3-1.6,5.3-3.8,7-6.6
							c1.6-2.8,2.4-6,2.4-9.7s-0.8-6.9-2.4-9.7c-1.6-2.8-4-5-7-6.6c-3-1.6-6.5-2.4-10.5-2.4H26.9v37.2H40.5z"/>
						<path d="M74.4,86h3.1v42.9h-3.1V86z"/>
						<path d="M122.1,126.1v2.8H92.5V86h28.7v2.8H95.6v16.9h22.8v2.8H95.6v17.6H122.1z"/>
						<path d="M147.8,88.8h-15.4V86h34v2.8h-15.4v40.1h-3.1V88.8z"/>
					</g>
				</g>
			</g>
		</g>
	</g>
</g>
</svg>
